<svg width="281" height="203" viewBox="0 0 281 203" fill="none" xmlns="http://www.w3.org/2000/svg">
<path d="M62.5 173.548H53.4L16.8 118.048V173.548H7.7V103.748H16.8L53.4 159.148V103.748H62.5V173.548ZM133.913 186.748L120.013 172.848C116.613 173.781 113.146 174.248 109.613 174.248C103.146 174.248 97.2458 172.748 91.9125 169.748C86.5792 166.681 82.3458 162.448 79.2125 157.048C76.1458 151.581 74.6125 145.448 74.6125 138.648C74.6125 131.848 76.1458 125.748 79.2125 120.348C82.3458 114.881 86.5792 110.648 91.9125 107.648C97.2458 104.581 103.146 103.048 109.613 103.048C116.146 103.048 122.079 104.581 127.413 107.648C132.746 110.648 136.946 114.848 140.013 120.248C143.079 125.648 144.613 131.781 144.613 138.648C144.613 145.314 143.146 151.314 140.213 156.648C137.279 161.981 133.246 166.181 128.113 169.248L145.713 186.748H133.913ZM83.9125 138.648C83.9125 144.181 85.0125 149.048 87.2125 153.248C89.4792 157.448 92.5458 160.681 96.4125 162.948C100.346 165.214 104.746 166.348 109.613 166.348C114.479 166.348 118.846 165.214 122.713 162.948C126.646 160.681 129.713 157.448 131.913 153.248C134.179 149.048 135.313 144.181 135.313 138.648C135.313 133.048 134.179 128.181 131.913 124.048C129.713 119.848 126.679 116.614 122.813 114.348C118.946 112.081 114.546 110.948 109.613 110.948C104.679 110.948 100.279 112.081 96.4125 114.348C92.5458 116.614 89.4792 119.848 87.2125 124.048C85.0125 128.181 83.9125 133.048 83.9125 138.648ZM227.521 104.348V173.548H218.421V121.948L195.421 173.548H189.021L165.921 121.848V173.548H156.821V104.348H166.621L192.221 161.548L217.821 104.348H227.521Z" fill="#5F9EA0"/>
<path d="M231.937 102.7C240.404 95.9 247.037 90.3333 251.837 86C256.637 81.6 260.67 77.0333 263.937 72.3C267.27 67.5 268.937 62.8 268.937 58.2C268.937 53.8667 267.87 50.4667 265.737 48C263.67 45.4667 260.304 44.2 255.637 44.2C251.104 44.2 247.57 45.6333 245.037 48.5C242.57 51.3 241.237 55.0667 241.037 59.8H232.237C232.504 52.3333 234.77 46.5667 239.037 42.5C243.304 38.4333 248.804 36.4 255.537 36.4C262.404 36.4 267.837 38.3 271.837 42.1C275.904 45.9 277.937 51.1333 277.937 57.8C277.937 63.3333 276.27 68.7333 272.937 74C269.67 79.2 265.937 83.8 261.737 87.8C257.537 91.7333 252.17 96.3333 245.637 101.6H280.037V109.2H231.937V102.7Z" fill="#5F9EA0"/>
</svg>
