<svg width="419" height="379" viewBox="0 0 419 379" fill="none" xmlns="http://www.w3.org/2000/svg">
<g opacity="0.4">
<path opacity="0.4" d="M407.488 276.835C416.298 228.604 413.117 184.03 390.543 141.599C374.461 111.366 346.526 86.1136 314.572 85.4475C284.432 84.8195 257.301 105.491 227.524 110.718C178.538 119.316 127.909 85.515 80.3336 100.966C54.874 109.233 34.1716 131.236 22.4811 157.375C10.788 183.514 7.47526 213.432 9.31711 242.444C12.5877 294.002 33.327 345.273 68.7563 378.631H357.343C381.584 347.671 401.792 308.033 407.488 276.835Z" fill="#E0E0FF"/>
</g>
<path d="M169.258 333.632H145.775C144.788 333.632 143.988 332.739 143.988 331.639V324.596C143.988 323.495 144.788 322.603 145.775 322.603H169.258C170.245 322.603 171.045 323.495 171.045 324.596V331.639C171.042 332.739 170.242 333.632 169.258 333.632Z" fill="#E0E0FF"/>
<path d="M199.954 333.632H176.47C175.484 333.632 174.684 332.739 174.684 331.639V324.596C174.684 323.495 175.484 322.603 176.47 322.603H199.954C200.941 322.603 201.741 323.495 201.741 324.596V331.639C201.741 332.739 200.941 333.632 199.954 333.632Z" fill="#E0E0FF"/>
<path d="M184.388 318.468H160.904C159.917 318.468 159.117 317.576 159.117 316.476V309.433C159.117 308.332 159.917 307.44 160.904 307.44H184.388C185.374 307.44 186.174 308.332 186.174 309.433V316.476C186.172 317.579 185.372 318.468 184.388 318.468Z" fill="#E0E0FF"/>
<path d="M315.101 59.9779C315.101 56.1893 312.346 53.1167 308.949 53.1167H104.178C100.781 53.1167 98.0259 56.1893 98.0259 59.9779V65.6035H315.101V59.9779Z" fill="white"/>
<path d="M315.425 65.9645H97.6996V59.9749C97.6996 55.9927 100.605 52.7499 104.178 52.7499H308.949C312.52 52.7499 315.427 55.9897 315.427 59.9749V65.9645H315.425ZM98.3496 65.2397H314.775V59.9779C314.775 56.3947 312.162 53.4806 308.949 53.4806H104.178C100.965 53.4806 98.3522 56.3947 98.3522 59.9779V65.2397H98.3496Z" fill="#5254CF"/>
<path d="M98.0259 65.6035V211.302C98.0259 215.09 100.781 218.163 104.178 218.163H308.949C312.346 218.163 315.101 215.09 315.101 211.302V65.6035H98.0259Z" fill="white"/>
<path d="M308.949 218.524H104.178C100.607 218.524 97.6996 215.284 97.6996 211.299V65.2397H315.425V211.299C315.425 215.284 312.52 218.524 308.949 218.524ZM98.3496 65.9645V211.299C98.3496 214.882 100.962 217.796 104.175 217.796H308.947C312.16 217.796 314.772 214.882 314.772 211.299V65.9645H98.3496Z" fill="#5254CF"/>
<path d="M108.752 61.7966C109.957 61.6753 110.847 60.487 110.738 59.1423C110.629 57.7976 109.564 56.8058 108.358 56.927C107.152 57.0483 106.263 58.2366 106.372 59.5813C106.48 60.926 107.546 61.9178 108.752 61.7966Z" fill="white"/>
<path d="M108.551 62.173C107.161 62.173 106.03 60.9111 106.03 59.3616C106.03 57.8121 107.161 56.5502 108.551 56.5502C109.94 56.5502 111.071 57.8121 111.071 59.3616C111.071 60.9111 109.94 62.173 108.551 62.173ZM108.551 57.2809C107.522 57.2809 106.688 58.2142 106.688 59.3587C106.688 60.5061 107.525 61.4364 108.551 61.4364C109.58 61.4364 110.414 60.5032 110.414 59.3587C110.414 58.2142 109.577 57.2809 108.551 57.2809Z" fill="#5254CF"/>
<path d="M117.303 61.7966C118.509 61.6754 119.398 60.487 119.29 59.1423C119.181 57.7976 118.115 56.8058 116.91 56.9271C115.704 57.0483 114.815 58.2367 114.924 59.5814C115.032 60.9261 116.098 61.9179 117.303 61.7966Z" fill="white"/>
<path d="M117.102 62.173C115.713 62.173 114.581 60.9111 114.581 59.3616C114.581 57.8121 115.713 56.5502 117.102 56.5502C118.491 56.5502 119.623 57.8121 119.623 59.3616C119.623 60.9111 118.491 62.173 117.102 62.173ZM117.102 57.2809C116.073 57.2809 115.239 58.2142 115.239 59.3587C115.239 60.5061 116.076 61.4364 117.102 61.4364C118.131 61.4364 118.965 60.5032 118.965 59.3587C118.965 58.2142 118.128 57.2809 117.102 57.2809Z" fill="#5254CF"/>
<path d="M125.855 61.7967C127.061 61.6754 127.95 60.4871 127.841 59.1424C127.733 57.7977 126.667 56.8059 125.462 56.9271C124.256 57.0484 123.367 58.2368 123.475 59.5814C123.584 60.9261 124.65 61.9179 125.855 61.7967Z" fill="white"/>
<path d="M125.654 62.173C124.264 62.173 123.133 60.9111 123.133 59.3616C123.133 57.8121 124.264 56.5502 125.654 56.5502C127.043 56.5502 128.174 57.8121 128.174 59.3616C128.174 60.9111 127.043 62.173 125.654 62.173ZM125.654 57.2809C124.625 57.2809 123.791 58.2142 123.791 59.3587C123.791 60.5061 124.628 61.4364 125.654 61.4364C126.683 61.4364 127.517 60.5032 127.517 59.3587C127.517 58.2142 126.68 57.2809 125.654 57.2809Z" fill="#5254CF"/>
<path opacity="0.4" d="M292.475 81.4886H120.649V196.532H292.475V81.4886Z" fill="#E0E0FF"/>
<path d="M237.796 217.743H181.699C179.625 196.139 179.094 176.77 180.949 163.893C181.456 160.386 182.133 157.363 183.009 154.907L206.629 149.543L234.094 152.286C238.709 165.61 239.433 189.565 237.796 217.743Z" fill="#FFB147"/>
<path d="M208.7 155.538H208.042V180.482H208.7V155.538Z" fill="#1B1B43"/>
<path opacity="0.2" d="M234.091 152.286C234.091 152.286 211.976 169.586 180.949 163.893C181.456 160.386 182.133 157.363 183.009 154.907L206.629 149.543L234.091 152.286Z" fill="#1B1B43"/>
<path d="M195.494 54.5136C195.494 54.5136 184.84 69.6651 187.406 82.5393L224.829 80.7961C224.829 80.7961 225.15 55.5847 216.975 53.4395L195.494 54.5136Z" fill="#1B1B43"/>
<path d="M227.721 79.2965H227.063C227.063 62.7804 219.362 55.1944 219.283 55.1181L219.712 54.5635C219.793 54.6427 227.721 62.4518 227.721 79.2965Z" fill="#1B1B43"/>
<path d="M186.382 140.592C186.337 142.318 186.032 143.973 185.514 145.528C184.159 149.622 181.317 152.944 177.652 154.575C176.77 154.98 175.836 155.274 174.863 155.456C173.1 155.793 171.047 155.984 168.635 155.984C156.531 155.984 147.743 145.731 146.703 142.605C145.664 139.474 148.595 140.586 148.595 140.586C149.663 137.927 152.045 140.07 152.045 140.07C152.763 137.296 155.013 139.888 155.013 139.888C155.013 139.888 155.092 138.368 156.373 138.456C157.162 138.514 159.749 140.269 161.614 141.604C162.575 142.288 163.68 142.64 164.798 142.64C165.246 142.64 165.693 142.588 166.132 142.47C168.429 141.883 170.192 139.82 170.618 137.238L174.242 115.213H182.819L185.569 119.146C186.65 123.997 186.585 133.93 186.382 140.592Z" fill="#FFBC96"/>
<path opacity="0.4" d="M185.514 145.531C184.159 149.625 181.317 152.947 177.652 154.578C177.349 153.763 177.178 152.868 177.178 151.928C177.178 148.152 179.928 145.085 183.322 145.085C184.093 145.082 184.83 145.243 185.514 145.531Z" fill="#FE5B52"/>
<path d="M204.919 73.0223L187.279 77.031C180.793 78.5041 175.713 84.1327 174.342 91.3549L169.545 116.648L185.577 119.152L204.919 73.0223Z" fill="#5254CF"/>
<path d="M211.063 73.0223L228.703 77.031C235.189 78.5041 240.269 84.1327 241.64 91.3549L243.819 109.318L228.268 112.358L211.063 73.0223Z" fill="#5254CF"/>
<path d="M185.574 119.149C185.574 119.149 184.719 147.993 183.009 154.907C183.009 154.907 206.948 164.204 234.094 152.284L231.957 99.1228L211.063 73.0193H204.919L184.08 103.176L185.574 119.149Z" fill="#5254CF"/>
<path d="M264.337 73.7354C264.434 75.6223 261.653 81.3273 259.517 85.4152C257.943 88.4144 256.938 91.754 256.57 95.208C253.812 121.033 251.991 142.64 243.932 148.692C242.064 150.091 239.867 150.667 237.249 150.262C235.399 149.974 233.881 149.146 232.636 147.905C224.151 139.483 228.268 112.352 228.268 112.352L238.793 110.327C238.793 110.327 241.148 88.1561 242.64 80.5261C244.14 72.9049 246.49 76.9547 246.49 76.9547C247.345 74.5718 249.692 76.0009 249.692 76.0009C251.402 72.9049 253.539 75.2819 253.539 75.2819C254.823 72.4265 258.459 77.4301 258.459 77.4301C260.811 76.2357 264.127 69.7736 264.337 73.7354Z" fill="#FFBC96"/>
<path d="M186.288 94.9244L185.252 119.126L185.909 119.161L186.945 94.9594L186.288 94.9244Z" fill="#1B1B43"/>
<path d="M227.971 112.786L226.627 93.5089L227.282 93.4531L228.571 111.927L238.741 109.969L238.854 110.691L227.971 112.786Z" fill="#1B1B43"/>
<path d="M240.99 89.7829L236.169 130.376L236.821 130.473L241.642 89.8792L240.99 89.7829Z" fill="#D28572"/>
<path opacity="0.4" d="M243.932 148.692C242.064 150.091 239.867 150.667 237.249 150.262C235.399 149.974 233.881 149.146 232.636 147.905C233.641 145.654 235.728 144.105 238.135 144.105C240.814 144.108 243.098 146.021 243.932 148.692Z" fill="#FE5B52"/>
<path d="M246.821 76.9122L246.171 77.0243L246.779 81.4153L247.429 81.3033L246.821 76.9122Z" fill="#D28572"/>
<path d="M250.105 75.9248L249.48 76.1538L250.746 80.4532L251.371 80.2242L250.105 75.9248Z" fill="#D28572"/>
<path d="M253.878 74.8053L253.258 75.0513L254.689 79.5329L255.309 79.2868L253.878 74.8053Z" fill="#D28572"/>
<path d="M221.625 94.6446H214.77C214.552 94.6446 214.373 94.448 214.373 94.2014V92.426C214.373 92.1824 214.549 91.9829 214.77 91.9829H221.625C221.843 91.9829 222.022 92.1795 222.022 92.426V94.2014C222.022 94.445 221.843 94.6446 221.625 94.6446Z" fill="#CBCBFF"/>
<path d="M207.453 86.3572C202.938 86.3572 199.809 83.2847 199.764 83.2377L200.204 82.6919C200.475 82.9618 206.9 89.2508 214.697 82.6713L215.094 83.2553C212.342 85.5825 209.721 86.3572 207.453 86.3572Z" fill="#1B1B43"/>
<path d="M158.999 143.773C157.599 143.166 156.076 141.863 154.597 140.008L155.089 139.521C156.499 141.29 157.933 142.526 159.238 143.092L158.999 143.773Z" fill="#D28572"/>
<path d="M155.242 144.841C153.897 143.893 152.703 142.35 151.595 140.125L152.171 139.77C153.226 141.886 154.344 143.345 155.594 144.225L155.242 144.841Z" fill="#D28572"/>
<path d="M152.592 146.203C150.987 144.871 149.506 143.007 148.072 140.513L148.624 140.117C150.016 142.538 151.442 144.337 152.984 145.613L152.592 146.203Z" fill="#D28572"/>
<path d="M207.434 81.6031C203.745 81.6031 200.754 78.2665 200.754 74.1521V61.5772H214.112V74.1521C214.112 78.2665 211.123 81.6031 207.434 81.6031Z" fill="#FFBC96"/>
<path d="M200.751 62.8509C204.882 70.5924 209.313 71.2263 214.126 62.9125L200.751 62.8509Z" fill="#D28572"/>
<path d="M207.434 66.0467C202.317 66.0467 198.167 61.4188 198.167 55.7109V38.2763H216.699V55.7109C216.699 61.4217 212.552 66.0467 207.434 66.0467Z" fill="#FFBC96"/>
<path d="M207.258 55.975C206.174 54.8335 205.766 53.9325 206.014 53.2165C206.248 52.5298 207.003 52.3126 207.448 52.2422L207.424 49.9884L208.082 49.9796L208.113 52.9348L207.79 52.9436C207.469 52.9553 206.761 53.0991 206.629 53.4777C206.566 53.6596 206.55 54.2113 207.713 55.438L207.258 55.975Z" fill="#1B1B43"/>
<path d="M210.726 58.2229C211.134 57.5304 211.331 56.9288 211.331 56.9288C209.087 57.1371 204.332 57.1371 204.332 57.1371C204.332 57.1371 204.469 57.7563 204.864 58.443C206.285 58.5105 208.613 58.5399 210.726 58.2229Z" fill="white"/>
<path d="M204.864 58.446C205.348 59.2912 206.224 60.2449 207.724 60.2977C209.174 60.3506 210.158 59.1973 210.726 58.2259C208.613 58.5399 206.285 58.5106 204.864 58.446Z" fill="#1B1B43"/>
<path d="M216.594 49.2489C216.602 49.6451 216.923 40.9967 204.835 39.1596C204.835 39.1596 198.009 43.5146 198.791 49.7977L195.084 49.0171C193.652 44.6621 194.144 33.0145 202.533 33.8421C202.533 33.8421 204.34 30.9603 207.3 30.9075C222.348 30.6316 219.972 49.243 219.609 49.7771L216.594 49.2489Z" fill="#1B1B43"/>
<path d="M221.369 53.2463C222.077 50.8513 221.208 48.3789 219.428 47.724C217.648 47.0692 215.63 48.4799 214.922 50.875C214.214 53.27 215.083 55.7424 216.863 56.3972C218.644 57.0521 220.661 55.6413 221.369 53.2463Z" fill="#FFBC96"/>
<path d="M217.667 53.3691L217.015 53.2781C217.128 52.2657 217.78 50.3259 219.433 50.2173L219.472 50.951C217.946 51.0478 217.67 53.3456 217.667 53.3691Z" fill="#1B1B43"/>
<path d="M197.945 56.4063C199.725 55.7515 200.594 53.2791 199.886 50.884C199.178 48.489 197.161 47.0783 195.38 47.7331C193.6 48.388 192.731 50.8604 193.439 53.2554C194.147 55.6504 196.165 57.0611 197.945 56.4063Z" fill="#FFBC96"/>
<path d="M197.138 53.3691C197.128 53.2752 196.854 51.0478 195.336 50.948L195.376 50.2144C197.028 50.323 197.681 52.2657 197.794 53.2752L197.138 53.3691Z" fill="#1B1B43"/>
<path d="M212.213 47.8344C212.213 48.4947 211.765 49.0317 211.216 49.0317C210.663 49.0317 210.218 48.4947 210.218 47.8344C210.218 47.1741 210.666 46.6371 211.216 46.6371C211.765 46.6371 212.213 47.1741 212.213 47.8344Z" fill="#1B1B43"/>
<path d="M213.002 45.2138L209.921 44.8C209.629 44.7618 209.421 44.4654 209.455 44.1397L209.474 43.9783C209.508 43.6526 209.774 43.4207 210.066 43.4589L213.147 43.8726C213.439 43.9108 213.647 44.2072 213.613 44.5329L213.594 44.6943C213.56 45.0201 213.294 45.2519 213.002 45.2138Z" fill="#1B1B43"/>
<path d="M202.593 47.8344C202.593 48.4947 203.04 49.0317 203.59 49.0317C204.14 49.0317 204.587 48.4947 204.587 47.8344C204.587 47.1741 204.14 46.6371 203.59 46.6371C203.04 46.6371 202.593 47.1741 202.593 47.8344Z" fill="#1B1B43"/>
<path d="M201.804 45.2138L204.885 44.8C205.177 44.7618 205.385 44.4654 205.351 44.1397L205.332 43.9783C205.298 43.6526 205.032 43.4207 204.74 43.4589L201.659 43.8726C201.367 43.9108 201.159 44.2072 201.193 44.5329L201.212 44.6943C201.246 45.0201 201.512 45.2519 201.804 45.2138Z" fill="#1B1B43"/>
<path opacity="0.4" d="M213.078 54.9655C214.267 54.9655 215.231 53.8908 215.231 52.565C215.231 51.2392 214.267 50.1645 213.078 50.1645C211.89 50.1645 210.926 51.2392 210.926 52.565C210.926 53.8908 211.89 54.9655 213.078 54.9655Z" fill="#FE5B52"/>
<path opacity="0.4" d="M201.727 54.9655C202.916 54.9655 203.88 53.8908 203.88 52.565C203.88 51.2392 202.916 50.1645 201.727 50.1645C200.539 50.1645 199.575 51.2392 199.575 52.565C199.575 53.8908 200.539 54.9655 201.727 54.9655Z" fill="#FE5B52"/>
<path d="M146.664 129.185H82.4307C80.602 129.185 79.118 127.53 79.118 125.49V96.0326C79.118 93.9931 80.602 92.338 82.4307 92.338H146.664C148.493 92.338 149.977 93.9931 149.977 96.0326V125.49C149.977 127.533 148.493 129.185 146.664 129.185Z" fill="white"/>
<path d="M146.664 129.54H82.4307C80.431 129.54 78.8022 127.724 78.8022 125.493V96.0327C78.8022 93.8023 80.431 91.9858 82.4307 91.9858H146.664C148.664 91.9858 150.292 93.8023 150.292 96.0327V125.49C150.292 127.724 148.664 129.54 146.664 129.54ZM82.4307 92.693C80.7783 92.693 79.4337 94.1926 79.4337 96.0356V125.493C79.4337 127.336 80.7783 128.836 82.4307 128.836H146.664C148.316 128.836 149.661 127.336 149.661 125.493V96.0327C149.661 94.1897 148.316 92.6901 146.664 92.6901H82.4307V92.693Z" fill="#5254CF"/>
<path d="M142.093 101.409H87.0011V102.143H142.093V101.409Z" fill="#E0E0FF"/>
<path d="M142.093 110.395H87.0011V111.128H142.093V110.395Z" fill="#E0E0FF"/>
<path d="M142.093 119.383H87.0011V120.117H142.093V119.383Z" fill="#E0E0FF"/>
<path d="M87.922 120.182L87.4063 119.727L91.3347 114.204L98.0943 116.778L103.912 109.731L109.83 115.049L116.776 106.377L123.078 114.486L128.706 98.2365L134.545 108.47L141.336 97.5528L141.875 97.9695L134.521 109.796L128.851 99.8565L123.296 115.888L116.768 107.486L109.903 116.056L103.978 110.735L98.2864 117.629L91.561 115.067L87.922 120.182Z" fill="#5254CF"/>
<path d="M265.519 29.1936L262.348 0.589859C249.571 2.33596 239.672 14.4706 239.672 29.1936C239.672 45.114 251.244 58.0205 265.519 58.0205C279.793 58.0205 291.365 45.114 291.365 29.1936C291.365 28.3514 291.325 27.518 291.262 26.6933L265.519 29.1936Z" fill="white"/>
<path d="M265.519 58.3886C251.086 58.3886 239.343 45.2914 239.343 29.195C239.343 14.469 249.216 2.01448 262.308 0.227293L262.635 0.183273L265.808 28.7988L291.565 26.2985L291.594 26.6653C291.665 27.5751 291.699 28.4026 291.699 29.195C291.697 45.2943 279.953 58.3886 265.519 58.3886ZM262.064 1.00203C249.463 2.9066 240.004 14.962 240.004 29.195C240.004 44.8893 251.452 57.655 265.521 57.655C279.593 57.655 291.039 44.8864 291.039 29.195C291.039 28.5288 291.015 27.8392 290.962 27.0938L265.232 29.5911L262.064 1.00203Z" fill="#5254CF"/>
<path d="M279.003 23.3244L304.747 20.8241C304.332 15.4449 302.595 10.4883 299.895 6.35933L279.003 23.3244Z" fill="#9192FF"/>
<path d="M286.413 12.2315C281.714 5.04169 274.107 0.366837 265.521 0.366837C264.448 0.366837 263.39 0.449006 262.351 0.589868L265.521 29.1937L286.413 12.2315Z" fill="#E0E0FF"/>
<path d="M265.261 29.8569L261.982 0.269985L262.308 0.225966C263.424 0.0733656 264.474 0 265.519 0C273.849 0 281.758 4.48997 286.679 12.0144L286.874 12.3107L265.261 29.8569ZM262.716 0.912668L265.779 28.5304L285.953 12.1493C281.145 4.9918 273.533 0.730721 265.521 0.730721C264.603 0.733656 263.685 0.792349 262.716 0.912668Z" fill="#5254CF"/>
<path d="M330.383 178.346H283.169C280.914 178.346 279.088 176.306 279.088 173.794V116.02C279.088 113.505 280.914 111.469 283.169 111.469H330.383C332.638 111.469 334.464 113.505 334.464 116.02V173.794C334.464 176.309 332.638 178.346 330.383 178.346Z" fill="white"/>
<path d="M330.383 178.698H283.169C280.745 178.698 278.772 176.497 278.772 173.794V116.02C278.772 113.318 280.745 111.117 283.169 111.117H330.383C332.807 111.117 334.78 113.318 334.78 116.02V173.794C334.78 176.5 332.807 178.698 330.383 178.698ZM283.169 111.821C281.093 111.821 279.403 113.705 279.403 116.02V173.794C279.403 176.11 281.093 177.994 283.169 177.994H330.383C332.459 177.994 334.149 176.11 334.149 173.794V116.02C334.149 113.705 332.459 111.821 330.383 111.821H283.169Z" fill="#5254CF"/>
<path d="M328.155 121.044H285.397V121.816H328.155V121.044Z" fill="#E0E0FF"/>
<path d="M328.155 132.783H285.397V133.555H328.155V132.783Z" fill="#E0E0FF"/>
<path d="M328.155 144.521H285.397V145.293H328.155V144.521Z" fill="#E0E0FF"/>
<path d="M328.155 156.26H285.397V157.032H328.155V156.26Z" fill="#E0E0FF"/>
<path d="M328.155 167.998H285.397V168.77H328.155V167.998Z" fill="#E0E0FF"/>
<path d="M289.039 136.821H285.397V168.77H289.039V136.821Z" fill="#CBCBFF"/>
<path d="M296.956 148.694H293.315V168.773H296.956V148.694Z" fill="#E0E0FF"/>
<path d="M304.874 141.317H301.232V168.77H304.874V141.317Z" fill="#CBCBFF"/>
<path d="M312.791 136.36H309.149V168.77H312.791V136.36Z" fill="#E0E0FF"/>
<path d="M320.708 130.377H317.067V168.77H320.708V130.377Z" fill="#CBCBFF"/>
<path d="M328.626 124.006H324.984V168.77H328.626V124.006Z" fill="#E0E0FF"/>
<path d="M173.129 4.58682H140.878C138.76 4.58682 137.044 6.5002 137.044 8.86257V23.4242C137.044 25.7865 138.76 27.6999 140.878 27.6999H162.901L171.368 35.7701V27.6999H173.126C175.244 27.6999 176.96 25.7865 176.96 23.4242V8.86257C176.962 6.5002 175.247 4.58682 173.129 4.58682Z" fill="white"/>
<path d="M171.716 36.6036L162.775 28.0814H140.878C138.573 28.0814 136.699 25.992 136.699 23.4212V8.86258C136.699 6.29185 138.573 4.20239 140.878 4.20239H173.129C175.434 4.20239 177.307 6.29185 177.307 8.86258V23.4242C177.307 25.9949 175.434 28.0844 173.129 28.0844H171.716V36.6036ZM140.878 4.97126C138.954 4.97126 137.391 6.71737 137.391 8.85964V23.4212C137.391 25.5665 138.957 27.3096 140.878 27.3096H163.03L171.024 34.9279V27.3126H173.129C175.052 27.3126 176.615 25.5665 176.615 23.4242V8.86258C176.615 6.71737 175.049 4.9742 173.129 4.9742H140.878V4.97126Z" fill="#5254CF"/>
<path d="M167.75 10.4561H141.933V11.1897H167.75V10.4561Z" fill="#9192FF"/>
<path d="M171.205 15.4097H141.933V16.1434H171.205V15.4097Z" fill="#9192FF"/>
<path d="M162.488 20.3604H141.933V21.0941H162.488V20.3604Z" fill="#9192FF"/>
<path d="M164.527 253.88H155.318V378.602H164.527V253.88Z" fill="#B0B0D2"/>
<path d="M258.264 253.88H249.055V378.602H258.264V253.88Z" fill="#B0B0D2"/>
<path opacity="0.3" d="M164.527 253.54H155.318V275.523H164.527V253.54Z" fill="#1B1B43"/>
<path opacity="0.3" d="M258.264 253.54H249.055V275.523H258.264V253.54Z" fill="#1B1B43"/>
<path d="M310.207 249.628H103.378V259.964H310.207V249.628Z" fill="#B0B0D2"/>
<path d="M285.882 246.098H261.93V249.64H285.882V246.098Z" fill="#1B1B43"/>
<path d="M265.474 249.64H261.93L247.813 208.1C247.403 206.891 248.203 205.597 249.363 205.597C250.052 205.597 250.668 206.072 250.913 206.788L265.474 249.64Z" fill="#1B1B43"/>
<path d="M133.159 249.64H157.111V246.098H133.159V249.64Z" fill="#1B1B43"/>
<path d="M153.568 249.64H157.113L171.229 208.1C171.639 206.891 170.84 205.597 169.679 205.597C168.99 205.597 168.374 206.072 168.129 206.788L153.568 249.64Z" fill="#1B1B43"/>
<path d="M86.0723 201.811L99.139 204.156L99.2837 196.171L99.4205 188.221L99.5415 181.424L95.9184 179.517L89.7087 187.631L86.0723 201.811Z" fill="#D28572"/>
<path d="M93.9449 188.139C93.9449 188.139 95.521 191.831 99.2837 196.171L99.4205 188.221L93.9449 188.139Z" fill="#925D4F"/>
<path d="M108.472 178.311C108.624 178.405 112.608 185.213 110.819 185.829C109.027 186.445 106.767 186.208 106.767 186.208L108.472 178.311Z" fill="#925D4F"/>
<path d="M109.785 172.518L108.138 189.436C107.998 190.871 107.154 192.101 105.946 192.623C105.104 192.99 104.165 192.972 103.333 192.579L93.9449 188.136L92.6793 178.598L100.281 169.718L109.785 172.518Z" fill="#D28572"/>
<path d="M87.1985 192.526L82.7044 203.651L100.136 206.709L101.341 198.028L87.1985 192.526Z" fill="#FED3D1"/>
<path d="M98.6495 178.578C98.6495 178.578 106.356 177.128 109.785 172.521C109.785 172.521 111.056 163.611 99.3047 162.431C86.5565 161.152 74.6002 181.272 74.6002 181.272L90.1744 196.444L98.6495 178.578Z" fill="#1B1B43"/>
<path d="M99.7393 182.782C101.047 182.031 101.396 179.881 100.519 177.979C99.6418 176.076 97.8705 175.142 96.5627 175.892C95.2548 176.642 94.9057 178.792 95.7829 180.695C96.6601 182.597 98.4314 183.532 99.7393 182.782Z" fill="#D28572"/>
<path d="M98.6864 180.717C98.6338 180.312 98.3706 179.162 97.8075 178.733C97.5918 178.569 97.3497 178.522 97.0708 178.592L96.9261 177.876C97.3892 177.759 97.8128 177.844 98.1812 178.129C99.0969 178.83 99.3284 180.538 99.3363 180.611L98.6864 180.717Z" fill="#1B1B43"/>
<path opacity="0.3" d="M104.233 185.665C105.641 185.665 106.783 184.392 106.783 182.821C106.783 181.251 105.641 179.978 104.233 179.978C102.825 179.978 101.683 181.251 101.683 182.821C101.683 184.392 102.825 185.665 104.233 185.665Z" fill="#BE443D"/>
<path d="M105.822 228.601C104.801 232.821 102.146 236.437 98.3759 238.177C98.1523 238.28 97.9286 238.374 97.6997 238.471C97.4761 238.559 97.2603 238.652 97.0419 238.741C90.0087 241.822 84.5042 248.278 82.3071 256.363C82.1808 256.832 82.0756 257.279 81.9914 257.698C81.9914 257.698 67.3566 260.081 52.556 250.913C52.556 250.913 60.7127 218.641 78.7181 203.284C82.8807 199.733 88.3484 198.706 93.3477 200.476C95.5395 201.254 97.5839 202.407 99.4258 203.88C101.26 205.362 102.894 207.158 104.249 209.227L104.572 209.726L106.164 222.682C106.409 224.698 106.277 226.709 105.822 228.601Z" fill="#FE5B52"/>
<path d="M105.822 228.601C104.801 232.821 102.146 236.437 98.3759 238.177C98.1522 238.28 97.9286 238.374 97.6997 238.47C97.476 238.559 97.2603 238.652 97.0419 238.74C94.7659 232.513 92.8977 222.609 92.8977 222.609L103.862 224.232L105.822 228.601Z" fill="#BE443D"/>
<path d="M129.516 214.779C129.516 214.779 139.147 203.296 142.178 204.141C143.493 204.508 139.547 209.095 139.547 209.095C139.547 209.095 143.312 209.177 149.345 205.7C150.006 205.321 150.819 205.644 151.103 206.41C151.282 206.891 151.211 207.44 150.919 207.845C149.643 209.611 145.835 214.36 140.533 216.431L138.284 219.674L132.64 222.668L129.516 214.779Z" fill="#D28572"/>
<path d="M138.286 219.674L125.688 244.721C124.122 247.823 121.183 249.754 117.984 249.754C116.702 249.754 115.452 249.44 114.313 248.859C113.174 248.278 112.148 247.427 111.308 246.341L92.8951 222.609L104.565 209.726L117.344 229.27L129.514 214.779L138.286 219.674Z" fill="#FE5B52"/>
<path d="M120.936 236.528C113.548 223.662 103.733 208.432 98.4706 203.411L98.8969 202.853C104.972 208.646 115.958 226.497 121.491 236.132L120.936 236.528Z" fill="#1B1B43"/>
<path d="M118.315 250.447C116.971 250.447 115.566 250.027 114.161 249.182C110.13 246.755 93.3556 223.815 92.6451 222.841L93.1556 222.377C93.3293 222.615 110.558 246.177 114.474 248.536C118.928 251.218 121.952 248.78 123.357 247.087C125.596 244.39 137.876 219.745 137.999 219.495L138.576 219.85C138.068 220.869 126.133 244.821 123.841 247.585C122.265 249.481 120.357 250.447 118.315 250.447Z" fill="#1B1B43"/>
<path d="M97.6128 349.649L86.2697 374.599L88.7483 374.989L92.8609 368.477L105.754 378.628L113.313 378.593C113.313 378.593 114.847 376.897 110.922 372.342C106.304 366.989 103.665 359.973 103.786 352.651L103.796 352.02L100.705 348.501L97.6128 349.649Z" fill="#1B1B43"/>
<path d="M98.0891 357.446L95.5868 378.584H98.0891L101.344 371.491L113.358 378.311H122.867C122.867 378.311 124.172 376.389 119.712 372.498C114.468 367.92 110.972 361.387 110.172 354.115L110.103 353.487L106.598 350.488L98.0891 357.446Z" fill="#393A8F"/>
<path d="M111.427 360.043L129.032 290.992C130.453 285.425 128.072 279.526 123.396 277.017L107.54 268.512L106.596 350.491L111.427 360.043Z" fill="#1B1B43"/>
<path d="M52.5533 250.913L49.0064 269.745C46.9356 280.741 54.4583 291.08 64.5358 291.08H97.7234C94.4028 309.174 96.5604 334.066 97.7234 359.676L111.427 360.043L120.881 294.217C122.462 283.206 116.892 272.468 107.54 268.512L81.9887 257.698L52.5533 250.913Z" fill="#5254CF"/>
<path opacity="0.4" d="M107.477 360.09L106.825 359.996C106.896 359.377 114.032 297.809 112.09 286.502C110.085 274.822 89.8929 271.45 79.047 269.636C78.0813 269.475 77.1946 269.328 76.4026 269.187C73.6846 268.706 71.7533 267.397 70.656 265.299C68.4958 261.161 70.364 255.485 70.4429 255.245L71.0586 255.503C71.0402 255.559 69.222 261.096 71.2244 264.932C72.2164 266.828 73.9924 268.016 76.5026 268.462C77.292 268.603 78.1787 268.75 79.1417 268.911C90.1507 270.748 110.64 274.173 112.734 286.364C113.558 291.165 112.924 305.034 110.848 327.586C109.306 344.363 107.496 359.935 107.477 360.09Z" fill="white"/>
<path d="M60.0917 294.058L57.8236 308.687L46.9619 378.702H42.3968L53.2584 308.687L55.5266 294.058H60.0917Z" fill="#B0B0D2"/>
<path d="M90.3507 378.702H85.7856L74.9266 308.687L72.6558 294.058H77.221L79.4917 308.687L90.3507 378.702Z" fill="#B0B0D2"/>
<path opacity="0.3" d="M60.0917 294.058L57.8236 308.687H53.2584L55.5265 294.058H60.0917Z" fill="#1B1B43"/>
<path opacity="0.3" d="M79.4917 308.687H74.9266L72.6558 294.058H77.221L79.4917 308.687Z" fill="#1B1B43"/>
<path d="M86.5381 298.049H43.8176V291.08H86.5381C88.2641 291.08 89.6613 292.641 89.6613 294.566C89.6613 296.488 88.2641 298.049 86.5381 298.049Z" fill="#CBCBFF"/>
<path d="M49.8484 298.049H43.8176L23.4494 242.368C22.8811 240.818 23.502 239.043 24.8597 238.33C26.3253 237.561 28.0698 238.318 28.6803 239.994L49.8484 298.049Z" fill="#CBCBFF"/>
<path d="M327.326 177.829C327.171 177.917 322.945 184.485 324.7 185.187C326.455 185.885 328.71 185.759 328.71 185.759L327.326 177.829Z" fill="#D28572"/>
<path d="M348.665 202.269L334.593 204.127L334.854 196.171L335.117 188.25L335.343 181.48L339.311 179.711L345.518 188.016L348.665 202.269Z" fill="#FFBC96"/>
<path d="M340.969 188.368C340.969 188.368 339.093 191.986 334.854 196.171L335.119 188.25L340.969 188.368Z" fill="#D28572"/>
<path d="M326.247 172.013L327.226 188.905C327.31 190.337 328.099 191.599 329.278 192.18C330.102 192.585 331.033 192.614 331.875 192.262L341.379 188.303L343.01 178.886L335.804 169.695L326.247 172.013Z" fill="#FFBC96"/>
<path d="M337.245 178.877C337.245 178.877 334.912 173.824 332.48 173.052C332.48 173.052 323.124 176.453 321.064 168.45C321.064 168.45 326.336 168.506 330.854 164.979C335.372 161.451 340.087 163.145 343.35 166.437C343.35 166.437 354.012 167.024 345.605 188.007C345.605 188.007 343.492 188.787 338.111 180.406L337.245 178.877Z" fill="#1B1B43"/>
<path d="M339.866 180.606C338.922 182.454 337.132 183.3 335.872 182.498C334.612 181.697 334.356 179.549 335.304 177.7C336.251 175.852 338.038 175.006 339.298 175.807C340.558 176.612 340.811 178.76 339.866 180.606Z" fill="#FFBC96"/>
<path opacity="0.4" d="M331.752 184.884C333.181 184.884 334.341 183.57 334.341 181.95C334.341 180.329 333.181 179.015 331.752 179.015C330.322 179.015 329.162 180.329 329.162 181.95C329.162 183.57 330.322 184.884 331.752 184.884Z" fill="#FE5B52"/>
<path d="M336.811 180.444C336.682 179.493 336.919 177.542 338.732 176.964L338.914 177.668C337.196 178.214 337.451 180.248 337.464 180.333L336.811 180.444Z" fill="#1B1B43"/>
<path d="M334.593 204.127L334.751 195.948L347.141 192.403L350.759 202.551L334.593 204.127Z" fill="#CBCBFF"/>
<path d="M336.506 200.84C330.289 207.589 325.763 217.714 320.061 227.985C320.061 227.985 300.737 233.549 295.201 239.724L305.15 245.349L339.137 234.834L336.506 200.84Z" fill="#1B1B43"/>
<path d="M286.26 354.012L278.509 378.558L254.257 371.808C254.257 371.808 258.03 366.053 269.413 367.708L275.465 348.739L286.26 354.012Z" fill="#1B1B43"/>
<path d="M334.751 256.965L299.722 269.663C291.497 272.644 285.216 280.119 283.079 289.463L268.968 354.541L288.044 360.043C295.522 340.273 302.787 316.678 307.779 293.771L334.751 256.965Z" fill="#393A8F"/>
<path d="M322.034 355.873L324.884 378.616H298.353C298.353 378.616 300.766 372.014 312.167 370.546L311.51 356.85L322.034 355.873Z" fill="#1B1B43"/>
<path d="M366.507 250.482L370.054 269.313C372.125 280.309 364.726 291.261 354.651 291.261H322.747C324.539 309.544 326.268 333.635 325.105 359.245L307.634 359.612L298.18 293.785C296.598 282.775 302.169 272.037 311.52 268.081L334.754 256.965L366.507 250.482Z" fill="#5254CF"/>
<path d="M367.641 256.598C364.768 225.987 360.658 197.104 339.985 198.431C338.758 198.51 337.606 199.123 336.738 200.092C333.18 204.059 331.362 209.564 331.762 215.155L334.751 256.965C334.751 256.965 350.867 260.266 367.641 256.598Z" fill="#1B1B43"/>
<path d="M295.201 239.448C295.201 239.448 283.032 242.016 281.059 249.719H298.325L301.614 247.151L295.201 239.448Z" fill="#FFBC96"/>
<path d="M340.098 205.151L324.31 232.478L295.204 239.448L298.33 249.719L322.734 249.581C329.286 249.437 334.893 245.616 338.537 239.542L352.104 217.808L340.098 205.151Z" fill="#1B1B43"/>
<path d="M295.27 239.809L295.13 239.093L324.058 232.167C324.829 229.74 325.594 227.228 326.334 224.795C329.373 214.82 332.244 205.397 335.804 200.25L336.325 200.699C332.833 205.749 329.978 215.114 326.957 225.03C326.197 227.527 325.41 230.113 324.616 232.601L324.555 232.795L324.376 232.839L295.27 239.809Z" fill="#5254CF"/>
<path d="M312.646 250.23C305.876 250.23 298.848 250.097 298.319 250.086L298.33 249.352C298.567 249.358 322.087 249.801 324.976 249.085L325.066 249.065C332.044 247.333 337.835 241.883 340.561 234.488L343.821 225.643L344.429 225.922L341.169 234.77C338.361 242.385 332.396 247.996 325.208 249.783L325.121 249.804C323.774 250.139 318.301 250.23 312.646 250.23Z" fill="#5254CF"/>
<path d="M373.538 378.699H378.106L364.973 294.058H360.408L373.538 378.699Z" fill="#B0B0D2"/>
<path d="M334.714 378.699H330.149L343.279 294.058H347.847L334.714 378.699Z" fill="#B0B0D2"/>
<path opacity="0.3" d="M347.836 294.058L345.568 308.687H341.003L343.271 294.058H347.836Z" fill="#1B1B43"/>
<path opacity="0.3" d="M367.236 308.687H362.671L360.4 294.058H364.965L367.236 308.687Z" fill="#1B1B43"/>
<path d="M333.964 298.049H376.685V291.08H333.964C332.238 291.08 330.838 292.641 330.838 294.566C330.838 296.488 332.238 298.049 333.964 298.049Z" fill="#CBCBFF"/>
<path d="M370.654 298.049H376.685L397.05 242.368C397.619 240.818 396.998 239.043 395.64 238.33C394.174 237.561 392.43 238.318 391.82 239.994L370.654 298.049Z" fill="#CBCBFF"/>
<path d="M419 378.261H0V378.995H419V378.261Z" fill="#1B1B43"/>
</svg>
