<svg width="39" height="39" viewBox="0 0 39 39" fill="none" xmlns="http://www.w3.org/2000/svg">
<path d="M38.2611 14.5336C38.5582 14.2975 39 14.5184 39 14.8916V30.4688C39 32.4873 37.3623 34.125 35.3438 34.125H3.65625C1.6377 34.125 0 32.4873 0 30.4688V14.8992C0 14.5184 0.43418 14.3051 0.738867 14.5412C2.44512 15.8666 4.70742 17.55 12.477 23.1943C14.0842 24.3674 16.7959 26.8354 19.5 26.8201C22.2193 26.843 24.9844 24.3217 26.5307 23.1943C34.3002 17.55 36.5549 15.859 38.2611 14.5336ZM19.5 24.375C21.2672 24.4055 23.8113 22.1508 25.091 21.2215C35.199 13.8861 35.9684 13.2463 38.2992 11.4182C38.741 11.0754 39 10.5422 39 9.97852V8.53125C39 6.5127 37.3623 4.875 35.3438 4.875H3.65625C1.6377 4.875 0 6.5127 0 8.53125V9.97852C0 10.5422 0.258984 11.0678 0.700781 11.4182C3.03164 13.2387 3.80098 13.8861 13.909 21.2215C15.1887 22.1508 17.7328 24.4055 19.5 24.375Z" fill="#C05647"/>
</svg>
